<?xml version="1.0" encoding="utf-8"?>
<!-- Generator: Adobe Illustrator 24.3.0, SVG Export Plug-In . SVG Version: 6.00 Build 0)  -->
<svg version="1.1" id="レイヤー_1" xmlns="http://www.w3.org/2000/svg" xmlns:xlink="http://www.w3.org/1999/xlink" x="0px"
	 y="0px" viewBox="0 0 322.6 88.8" style="enable-background:new 0 0 322.6 88.8;" xml:space="preserve">
<style type="text/css">
	.st0{fill:#3E3A39;}
	.st1{fill:#E4805B;}
</style>
<g>
	<path class="st0" d="M10.05,88.8H3.19c-1.19,0-1.6-0.64-1.24-1.92L27.64,2.39c0.36-1.28,1.24-1.92,2.61-1.92h9.89
		c1.37,0,2.24,0.64,2.61,1.92l25.69,84.49c0.36,1.28-0.05,1.92-1.24,1.92H60.2c-1.01,0-1.65-0.64-1.92-1.92l-6.46-20.06H18.57
		l-6.46,20.06C11.75,88.16,11.06,88.8,10.05,88.8z M34.92,10.77L20.77,58.3h28.85L35.47,10.77H34.92z"/>
	<path class="st0" d="M99.63,88.8h-9.75c-1.19,0-1.97-0.64-2.34-1.92L63.22,2.53c-0.27-1.37,0.32-2.06,1.79-2.06h6.73
		c1.19,0,1.92,0.64,2.2,1.92l20.47,75.15h0.55l20.47-75.15c0.27-1.28,1.01-1.92,2.2-1.92h6.87c1.37,0,1.92,0.69,1.65,2.06
		l-24.32,84.35C101.46,88.16,100.73,88.8,99.63,88.8z"/>
	<path class="st0" d="M129.03,88.8h-6.87c-1.19,0-1.6-0.64-1.24-1.92l25.69-84.49c0.36-1.28,1.24-1.92,2.61-1.92h9.89
		c1.37,0,2.24,0.64,2.61,1.92l25.69,84.49c0.36,1.28-0.05,1.92-1.24,1.92h-7.01c-1.01,0-1.65-0.64-1.92-1.92l-6.46-20.06h-33.25
		l-6.46,20.06C130.72,88.16,130.03,88.8,129.03,88.8z M153.89,10.77L139.74,58.3h28.85l-14.15-47.53H153.89z"/>
	<path class="st0" d="M205.96,88.8h-6.04c-1.28,0-1.92-0.64-1.92-1.92V2.39c0-1.28,0.64-1.92,1.92-1.92h5.63
		c1.1,0,1.83,0.37,2.2,1.1l37.92,66.63h0.55V2.39c0-1.28,0.64-1.92,1.92-1.92h6.04c1.28,0,1.92,0.64,1.92,1.92v84.49
		c0,1.28-0.64,1.92-1.92,1.92h-5.08c-1.01,0-1.97-0.59-2.88-1.79l-37.78-65.94h-0.55v65.81C207.88,88.16,207.24,88.8,205.96,88.8z"
		/>
	<path class="st0" d="M298,88.8h-6.18c-1.28,0-1.92-0.64-1.92-1.92V10.5c0-0.82-0.46-1.24-1.37-1.24h-18.68
		c-1.37,0-2.06-0.64-2.06-1.92V2.39c0-1.28,0.69-1.92,2.06-1.92h50.15c1.37,0,2.06,0.64,2.06,1.92v4.95c0,1.28-0.69,1.92-2.06,1.92
		H301.3c-0.92,0-1.38,0.41-1.38,1.24v76.38C299.93,88.16,299.29,88.8,298,88.8z"/>
</g>
<path class="st1" d="M39.71,44.41c0,2.58-2.09,4.67-4.67,4.67c-2.58,0-4.67-2.09-4.67-4.67c0-2.58,2.09-4.66,4.67-4.66
	C37.62,39.75,39.71,41.82,39.71,44.41z"/>
</svg>
