<?xml version="1.0" encoding="utf-8"?>
<!-- Generator: Adobe Illustrator 24.3.0, SVG Export Plug-In . SVG Version: 6.00 Build 0)  -->
<svg version="1.1" id="レイヤー_1" xmlns="http://www.w3.org/2000/svg" xmlns:xlink="http://www.w3.org/1999/xlink" x="0px"
	 y="0px" viewBox="0 0 500 500" style="enable-background:new 0 0 500 500;" xml:space="preserve">
<style type="text/css">
	.st0{fill:#FFFFFF;}
</style>
<g>
	<polygon class="st0" points="138.5,248 254,48 369.5,248 385.6,248 254,20 122.4,248 	"/>
	<polygon class="st0" points="400.6,302 465.3,414 42.7,414 107.4,302 91.2,302 18.4,428 489.6,428 416.8,302 	"/>
</g>
<g>
	<path class="st0" d="M36.5,288.3l-3-6.2H17.8l-3,6.2h-4.3l12.9-26.5h4.8L41,288.3H36.5z M23.6,270.2l-3.9,7.9h11.8l-3.9-8.1
		c-0.4-0.7-0.7-1.4-1-2.1c-0.3-0.7-0.7-1.4-1-2.2c-0.3,0.8-0.7,1.6-1,2.3C24.3,268.7,23.9,269.4,23.6,270.2z"/>
	<path class="st0" d="M77,261.8l-11.9,26.5h-4.9L48,261.8h4.6l7.1,15.8c0.4,1,0.9,2.1,1.5,3.3c0.6,1.2,1.1,2.4,1.6,3.5
		c0.5-1.1,1-2.3,1.5-3.5c0.5-1.2,1-2.3,1.4-3.3l6.5-15.9H77z"/>
	<path class="st0" d="M110,288.3l-3-6.2H91.3l-3,6.2H84l12.9-26.5h4.8l12.9,26.5H110z M97.1,270.2l-3.9,7.9h11.8l-3.9-8.1
		c-0.4-0.7-0.7-1.4-1-2.1c-0.3-0.7-0.7-1.4-1-2.2c-0.3,0.8-0.7,1.6-1,2.3C97.8,268.7,97.5,269.4,97.1,270.2z"/>
	<path class="st0" d="M149.5,261.8h4.1v26.5h-4.1l-21.1-20.8c0.2,1.6,0.3,3.3,0.5,4.9s0.2,3.3,0.2,4.9v11h-4.1v-26.5h4l21.1,21.3
		c-0.2-1.2-0.3-2.6-0.4-4c-0.1-1.5-0.2-2.9-0.2-4.4c0-1.5-0.1-2.9-0.1-4.2V261.8z"/>
	<path class="st0" d="M174.3,288.3v-22.5h-10.1v-3.9h24.4v3.9h-10.3v22.5H174.3z"/>
</g>
<g>
	<path class="st0" d="M273.7,272.2c0.5-0.7,0.7-1.5,0.7-2.3c0-0.8-0.2-1.5-0.7-2.1c-0.5-0.6-1.1-1.1-1.9-1.5
		c-0.8-0.4-1.7-0.6-2.7-0.6h-10.3v8.9h10.3c1,0,1.9-0.2,2.7-0.6C272.6,273.5,273.3,272.9,273.7,272.2z"/>
	<path class="st0" d="M340.7,267.9c-0.3-0.7-0.7-1.4-1-2.2c-0.3,0.8-0.7,1.6-1,2.3c-0.3,0.7-0.7,1.4-1,2.2l-3.9,7.9h11.8l-3.9-8.1
		C341.4,269.3,341,268.6,340.7,267.9z"/>
	<path class="st0" d="M205.9,254.4v41.3H496v-41.3H205.9z M220.7,279.2c0.6,1.2,1.5,2.2,2.6,3c1.1,0.8,2.3,1.4,3.7,1.8
		c1.4,0.4,2.8,0.6,4.3,0.6c1.5,0,2.9-0.2,4-0.6c1.2-0.4,2.2-0.9,3.2-1.5c0.9-0.6,1.8-1.1,2.5-1.7l2,3.4c-0.7,0.6-1.7,1.2-2.9,1.9
		c-1.2,0.7-2.6,1.3-4.2,1.7s-3.2,0.7-5,0.7c-2.1,0-4.1-0.3-6-1c-1.9-0.6-3.5-1.6-4.9-2.7c-1.4-1.2-2.5-2.6-3.3-4.3
		c-0.8-1.7-1.2-3.5-1.2-5.6c0-1.9,0.4-3.7,1.2-5.4c0.8-1.6,1.9-3.1,3.3-4.3c1.4-1.2,3.1-2.2,4.9-2.8c1.8-0.7,3.8-1,5.8-1
		c1.7,0,3.4,0.2,4.9,0.6c1.6,0.4,3,1,4.3,1.7c1.3,0.7,2.3,1.4,3,2.1l-2.4,3.4c-1.4-1.1-2.9-2-4.5-2.8c-1.7-0.7-3.5-1.1-5.6-1.1
		c-1.3,0-2.6,0.2-3.9,0.7c-1.3,0.4-2.4,1.1-3.5,1.9c-1,0.8-1.8,1.8-2.4,3c-0.6,1.2-0.9,2.5-0.9,3.9
		C219.8,276.6,220.1,278,220.7,279.2z M275.3,288.3l-7.3-9.8h-9.1v9.8h-4.1v-26.5h15.5c1.6,0,3,0.4,4.3,1.1c1.3,0.7,2.3,1.7,3.1,2.9
		c0.8,1.2,1.2,2.6,1.2,4.1c0,1.3-0.3,2.4-0.8,3.5c-0.5,1.1-1.3,2-2.2,2.8c-0.9,0.8-2,1.4-3.2,1.8l7.8,10.3L275.3,288.3z M315,265.7
		h-17.9v7h15.8v3.9h-15.8v7.7H315v3.9h-22v-26.5h22V265.7z M350.6,288.3l-3-6.2h-15.7l-3,6.2h-4.3l12.9-26.5h4.8l12.9,26.5H350.6z
		 M386.8,265.7h-10.3v22.5h-4.1v-22.5h-10.1v-3.9h24.4V265.7z M415.7,265.8h-6.9v18.4h6.9v4h-17.9v-4h6.9v-18.4h-6.9v-4h17.9V265.8z
		 M443.5,288.3h-4.9l-12.2-26.5h4.6l7.1,15.8c0.4,1,0.9,2.1,1.5,3.3c0.6,1.2,1.1,2.4,1.6,3.5c0.5-1.1,1-2.3,1.5-3.5
		c0.5-1.2,1-2.3,1.4-3.3l6.5-15.9h4.8L443.5,288.3z M487.8,265.7h-17.9v7h15.8v3.9h-15.8v7.7h17.9v3.9h-22v-26.5h22V265.7z"/>
</g>
</svg>
