<?xml version="1.0" encoding="utf-8"?>
<!-- Generator: Adobe Illustrator 24.3.0, SVG Export Plug-In . SVG Version: 6.00 Build 0)  -->
<svg version="1.1" id="レイヤー_1" xmlns="http://www.w3.org/2000/svg" xmlns:xlink="http://www.w3.org/1999/xlink" x="0px"
	 y="0px" viewBox="0 0 671 57" style="enable-background:new 0 0 671 57;" xml:space="preserve">
<style type="text/css">
	.st0{fill:#3E3A39;}
</style>
<g>
	<path class="st0" d="M37.35,46.69l-4.17-8.56H11.53l-4.17,8.56H1.41l17.84-36.52h6.57l17.74,36.52H37.35z M19.51,21.75L14.19,32.7
		h16.33L25.1,21.54c-0.49-1.01-0.96-1.97-1.41-2.9c-0.45-0.92-0.9-1.92-1.36-3c-0.45,1.11-0.91,2.16-1.38,3.13
		C20.48,19.75,20,20.74,19.51,21.75z"/>
	<path class="st0" d="M93.23,10.17L76.79,46.69h-6.78L53.16,10.17h6.36l9.76,21.75c0.59,1.39,1.29,2.93,2.11,4.62
		c0.82,1.69,1.54,3.3,2.16,4.83c0.63-1.53,1.31-3.12,2.06-4.77c0.75-1.65,1.4-3.17,1.96-4.56l9.02-21.86H93.23z"/>
	<path class="st0" d="M138.77,46.69l-4.17-8.56h-21.65l-4.17,8.56h-5.95l17.84-36.52h6.57l17.74,36.52H138.77z M120.93,21.75
		L115.6,32.7h16.33l-5.42-11.16c-0.49-1.01-0.96-1.97-1.41-2.9c-0.45-0.92-0.91-1.92-1.36-3c-0.45,1.11-0.91,2.16-1.38,3.13
		C121.89,19.75,121.41,20.74,120.93,21.75z"/>
	<path class="st0" d="M193.12,10.17h5.63v36.52h-5.69l-29.16-28.69c0.21,2.26,0.42,4.51,0.65,6.76s0.34,4.5,0.34,6.76v15.18h-5.63
		V10.17h5.58l29.16,29.42c-0.24-1.7-0.43-3.56-0.55-5.58c-0.12-2.02-0.21-4.04-0.26-6.08c-0.05-2.03-0.08-3.96-0.08-5.76V10.17z"/>
	<path class="st0" d="M227.34,46.69V15.59h-13.88v-5.43h33.7v5.43h-14.19v31.09H227.34z"/>
</g>
<g>
	<path class="st0" d="M364.52,24.57c0.68-0.97,1.02-2.03,1.02-3.18c0-1.08-0.34-2.05-1.02-2.92c-0.68-0.87-1.57-1.56-2.69-2.09
		c-1.11-0.52-2.35-0.78-3.7-0.78h-14.14V27.8h14.14c1.36,0,2.59-0.29,3.7-0.89C362.94,26.32,363.84,25.54,364.52,24.57z"/>
	<path class="st0" d="M456.83,18.65c-0.45-0.92-0.91-1.92-1.36-3c-0.45,1.11-0.91,2.16-1.38,3.13c-0.47,0.97-0.95,1.97-1.43,2.97
		l-5.32,10.96h16.33l-5.42-11.16C457.75,20.53,457.28,19.57,456.83,18.65z"/>
	<path class="st0" d="M271,0v57h400V0H271z M291.41,34.19c0.87,1.65,2.04,3.04,3.52,4.17c1.48,1.13,3.16,1.97,5.06,2.53
		c1.89,0.56,3.85,0.83,5.87,0.83c2.09,0,3.95-0.27,5.58-0.81c1.63-0.54,3.09-1.21,4.38-2.01c1.29-0.8,2.45-1.58,3.5-2.35l2.71,4.7
		c-0.97,0.8-2.29,1.67-3.96,2.61c-1.67,0.94-3.58,1.73-5.74,2.37s-4.45,0.96-6.89,0.96c-2.96,0-5.71-0.44-8.27-1.33
		c-2.56-0.89-4.79-2.15-6.7-3.78c-1.91-1.63-3.41-3.61-4.49-5.92c-1.08-2.31-1.62-4.89-1.62-7.75c0-2.68,0.56-5.15,1.67-7.41
		c1.11-2.26,2.65-4.23,4.62-5.9c1.96-1.67,4.22-2.96,6.75-3.89c2.54-0.92,5.22-1.38,8.03-1.38c2.36,0,4.62,0.3,6.78,0.89
		c2.16,0.59,4.11,1.36,5.87,2.3c1.76,0.94,3.16,1.91,4.2,2.92l-3.34,4.75c-1.88-1.53-3.96-2.8-6.26-3.81
		c-2.29-1.01-4.89-1.51-7.77-1.51c-1.84,0-3.65,0.3-5.43,0.91c-1.77,0.61-3.36,1.48-4.77,2.61c-1.41,1.13-2.53,2.5-3.36,4.09
		c-0.83,1.6-1.25,3.41-1.25,5.43C290.1,30.62,290.54,32.54,291.41,34.19z M366.63,46.69l-10.12-13.46h-12.52v13.46h-5.63V10.17
		h21.34c2.16,0,4.13,0.5,5.92,1.49c1.79,0.99,3.23,2.33,4.3,4.02c1.08,1.69,1.62,3.59,1.62,5.71c0,1.74-0.37,3.35-1.12,4.83
		c-0.75,1.48-1.77,2.76-3.05,3.86c-1.29,1.1-2.75,1.92-4.38,2.48l10.69,14.19L366.63,46.69z M421.41,15.59h-24.67v9.65h21.81v5.43
		h-21.81v10.59h24.67v5.43H391.1V10.17h30.31V15.59z M470.49,46.69l-4.17-8.56h-21.65l-4.17,8.56h-5.95l17.84-36.52h6.57
		l17.74,36.52H470.49z M520.42,15.59h-14.19v31.09h-5.63V15.59h-13.88v-5.43h33.7V15.59z M560.27,15.75h-9.55V41.1h9.55v5.58h-24.73
		V41.1h9.55V15.75h-9.55v-5.58h24.73V15.75z M598.61,46.69h-6.78l-16.85-36.52h6.36l9.75,21.75c0.59,1.39,1.29,2.93,2.11,4.62
		c0.82,1.69,1.54,3.3,2.16,4.83c0.63-1.53,1.31-3.12,2.06-4.77c0.75-1.65,1.4-3.17,1.96-4.56l9.02-21.86h6.63L598.61,46.69z
		 M659.65,15.59h-24.67v9.65h21.81v5.43h-21.81v10.59h24.67v5.43h-30.31V10.17h30.31V15.59z"/>
</g>
</svg>
