<?xml version="1.0" encoding="utf-8"?>
<!-- Generator: Adobe Illustrator 24.3.0, SVG Export Plug-In . SVG Version: 6.00 Build 0)  -->
<svg version="1.1" id="レイヤー_1" xmlns="http://www.w3.org/2000/svg" xmlns:xlink="http://www.w3.org/1999/xlink" x="0px"
	 y="0px" viewBox="0 0 322.6 88.8" style="enable-background:new 0 0 322.6 88.8;" xml:space="preserve">
<style type="text/css">
	.st0{fill:#E47F5A;}
	.st1{fill:#3D3939;}
</style>
<g>
	<path class="st0" d="M8.4,80.3L33.2,9.1c0.2-0.6,0.8-1,1.4-1h9.8c0.6,0,1.2,0.4,1.4,1l24.8,71.2c0.3,0.9-0.4,1.9-1.4,1.9H58.9
		c-0.6,0-1.2-0.4-1.4-1l-4.4-13.4c-0.2-0.6-0.7-1-1.4-1H27.2c-0.6,0-1.2,0.4-1.4,1l-4.4,13.4c-0.2,0.6-0.7,1-1.4,1H9.8
		C8.8,82.2,8.1,81.2,8.4,80.3z M31.5,56.1h15.8c1,0,1.7-1,1.4-1.9l-7.9-23.9c-0.4-1.3-2.3-1.3-2.7,0l-7.9,23.9
		C29.9,55.1,30.6,56.1,31.5,56.1z"/>
	<path class="st1" d="M76.4,9.1l16.6,49.2c0.4,1.3,2.3,1.3,2.7,0l16.8-49.2c0.2-0.6,0.7-1,1.4-1h10.6c1,0,1.7,1,1.3,1.9l-25.3,71.2
		c-0.2,0.6-0.8,1-1.3,1h-9.3c-0.6,0-1.2-0.4-1.3-1L63.1,10c-0.3-0.9,0.4-1.9,1.3-1.9H75C75.6,8.1,76.2,8.5,76.4,9.1z"/>
	<path class="st1" d="M118.2,80.3L143,9.1c0.2-0.6,0.8-1,1.4-1h9.8c0.6,0,1.2,0.4,1.4,1l24.8,71.2c0.3,0.9-0.4,1.9-1.4,1.9h-10.1
		c-0.6,0-1.2-0.4-1.4-1L163,67.8c-0.2-0.6-0.7-1-1.4-1H137c-0.6,0-1.2,0.4-1.4,1l-4.4,13.4c-0.2,0.6-0.7,1-1.4,1h-10.2
		C118.6,82.2,117.9,81.2,118.2,80.3z M141.4,56.1h15.8c1,0,1.7-1,1.4-1.9l-7.9-23.9c-0.4-1.3-2.3-1.3-2.7,0L140,54.2
		C139.7,55.1,140.4,56.1,141.4,56.1z"/>
	<path class="st1" d="M239.4,9.5v71.2c0,0.8-0.6,1.4-1.4,1.4h-8.8c-0.5,0-1-0.3-1.2-0.7l-27.1-45.2c-0.8-1.2-2.7-0.7-2.7,0.7v43.7
		c0,0.8-0.6,1.4-1.4,1.4h-9.1c-0.8,0-1.4-0.6-1.4-1.4V9.5c0-0.8,0.6-1.4,1.4-1.4h8.5c0.5,0,1,0.3,1.2,0.7l27.4,45.8
		c0.8,1.2,2.7,0.7,2.7-0.7V9.5c0-0.8,0.6-1.4,1.4-1.4h9.1C238.8,8.1,239.4,8.7,239.4,9.5z"/>
	<path class="st1" d="M302.3,9.5v8c0,0.8-0.6,1.4-1.4,1.4h-18.4c-0.8,0-1.4,0.6-1.4,1.4v60.3c0,0.8-0.6,1.4-1.4,1.4H270
		c-0.8,0-1.4-0.6-1.4-1.4V20.4c0-0.8-0.6-1.4-1.4-1.4h-18.5c-0.8,0-1.4-0.6-1.4-1.4v-8c0-0.8,0.6-1.4,1.4-1.4h52.2
		C301.7,8.1,302.3,8.7,302.3,9.5z"/>
	<path class="st1" d="M308,82.2h-8.3c-0.5,0-1-0.4-1-1v-8.3c0-0.6,0.5-1,1-1h8.3c0.5,0,1,0.4,1,1v8.3C309,81.7,308.6,82.2,308,82.2z
		"/>
</g>
</svg>
