<?xml version="1.0" encoding="utf-8"?>
<!-- Generator: Adobe Illustrator 24.3.0, SVG Export Plug-In . SVG Version: 6.00 Build 0)  -->
<svg version="1.1" id="レイヤー_1" xmlns="http://www.w3.org/2000/svg" xmlns:xlink="http://www.w3.org/1999/xlink" x="0px"
	 y="0px" viewBox="0 0 322.6 57.11" style="enable-background:new 0 0 322.6 57.11;" xml:space="preserve">
<style type="text/css">
	.st0{fill:#E47F5A;}
	.st1{fill:#3D3939;}
</style>
<g>
	<path class="st0" d="M56.95,57.11l-6.53-13.38H16.57l-6.53,13.38h-9.3L28.64,0h10.28l27.74,57.11H56.95z M29.05,18.11l-8.32,17.13
		h25.53l-8.48-17.46c-0.76-1.58-1.5-3.09-2.2-4.53c-0.71-1.44-1.41-3-2.12-4.69c-0.71,1.74-1.43,3.37-2.16,4.89
		C30.56,14.98,29.81,16.53,29.05,18.11z"/>
	<path class="st1" d="M123.92,0l-25.7,57.11H87.62L61.27,0h9.95l15.25,34.02c0.93,2.18,2.03,4.58,3.3,7.22
		c1.28,2.64,2.41,5.15,3.39,7.55c0.98-2.39,2.05-4.88,3.22-7.46c1.17-2.58,2.19-4.96,3.06-7.14L113.56,0H123.92z"/>
	<path class="st1" d="M174.75,57.11l-6.53-13.38h-33.86l-6.53,13.38h-9.3L146.44,0h10.28l27.74,57.11H174.75z M146.85,18.11
		l-8.32,17.13h25.53l-8.48-17.46c-0.76-1.58-1.5-3.09-2.2-4.53c-0.71-1.44-1.42-3-2.12-4.69c-0.71,1.74-1.43,3.37-2.16,4.89
		C148.36,14.98,147.61,16.53,146.85,18.11z"/>
	<path class="st1" d="M245.89,0h8.81v57.11h-8.89l-45.6-44.87c0.33,3.54,0.67,7.06,1.02,10.56c0.35,3.51,0.53,7.03,0.53,10.56v23.74
		h-8.81V0h8.73l45.6,46.01c-0.38-2.66-0.67-5.57-0.86-8.73c-0.19-3.15-0.33-6.32-0.41-9.5c-0.08-3.18-0.12-6.19-0.12-9.01V0z"/>
	<path class="st1" d="M285.53,57.11V8.48h-21.7V0h52.7v8.48h-22.19v48.62H285.53z"/>
	<path class="st1" d="M321.89,57.11h-5.96c-0.4,0-0.72-0.32-0.72-0.72v-5.96c0-0.4,0.32-0.72,0.72-0.72h5.96
		c0.4,0,0.72,0.32,0.72,0.72v5.96C322.6,56.79,322.28,57.11,321.89,57.11z"/>
</g>
</svg>
