<?xml version="1.0" encoding="utf-8"?>
<!-- Generator: Adobe Illustrator 24.3.0, SVG Export Plug-In . SVG Version: 6.00 Build 0)  -->
<svg version="1.1" id="レイヤー_1" xmlns="http://www.w3.org/2000/svg" xmlns:xlink="http://www.w3.org/1999/xlink" x="0px"
	 y="0px" viewBox="0 0 681 57" style="enable-background:new 0 0 681 57;" xml:space="preserve">
<style type="text/css">
	.st0{fill:#3E3A39;}
	.st1{fill:#E47F5A;}
</style>
<g>
	<path class="st0" d="M37.3,46.7l-4.2-8.6H11.5l-4.2,8.6H1.4l17.8-36.5h6.6l17.7,36.5H37.3z M19.5,21.8l-5.3,11h16.3l-5.4-11.2
		c-0.5-1-1-2-1.4-2.9c-0.5-0.9-0.9-1.9-1.4-3c-0.5,1.1-0.9,2.2-1.4,3.1C20.5,19.8,20,20.7,19.5,21.8z"/>
	<path class="st0" d="M93.2,10.2L76.8,46.7H70L53.2,10.2h6.4l9.8,21.8c0.6,1.4,1.3,2.9,2.1,4.6c0.8,1.7,1.5,3.3,2.2,4.8
		c0.6-1.5,1.3-3.1,2.1-4.8s1.4-3.2,2-4.6l9-21.9L93.2,10.2L93.2,10.2z"/>
	<path class="st0" d="M138.8,46.7l-4.2-8.6H113l-4.2,8.6h-5.9l17.8-36.5h6.6L145,46.7H138.8z M120.9,21.8l-5.3,11h16.3l-5.4-11.2
		c-0.5-1-1-2-1.4-2.9c-0.4-0.9-0.9-1.9-1.4-3c-0.4,1.1-0.9,2.2-1.4,3.1C121.9,19.8,121.4,20.7,120.9,21.8z"/>
	<path class="st0" d="M193.1,10.2h5.6v36.5h-5.7L163.9,18c0.2,2.3,0.4,4.5,0.6,6.8s0.3,4.5,0.3,6.8v15.2h-5.6V10.2h5.6L194,39.6
		c-0.2-1.7-0.4-3.6-0.6-5.6c-0.1-2-0.2-4-0.3-6.1c-0.1-2-0.1-4-0.1-5.8L193.1,10.2L193.1,10.2z"/>
	<path class="st0" d="M227.3,46.7V15.6h-13.9v-5.4h33.7v5.4H233v31.1L227.3,46.7L227.3,46.7z"/>
</g>
<g>
	<path class="st1" d="M364.5,24.6c0.7-1,1-2,1-3.2c0-1.1-0.3-2-1-2.9s-1.6-1.6-2.7-2.1c-1.1-0.5-2.4-0.8-3.7-0.8H344v12.2h14.1
		c1.4,0,2.6-0.3,3.7-0.9C362.9,26.3,363.8,25.5,364.5,24.6z"/>
	<path class="st1" d="M456.8,18.6c-0.5-0.9-0.9-1.9-1.4-3c-0.5,1.1-0.9,2.2-1.4,3.1s-1,2-1.4,3l-5.3,11h16.3l-5.4-11.2
		C457.8,20.5,457.3,19.6,456.8,18.6z"/>
	<path class="st1" d="M264,0v57h417V0H264z M291.4,34.2c0.9,1.7,2,3,3.5,4.2c1.5,1.1,3.2,2,5.1,2.5c1.9,0.6,3.9,0.8,5.9,0.8
		c2.1,0,4-0.3,5.6-0.8c1.6-0.5,3.1-1.2,4.4-2s2.5-1.6,3.5-2.3l2.7,4.7c-1,0.8-2.3,1.7-4,2.6c-1.7,0.9-3.6,1.7-5.7,2.4s-4.5,1-6.9,1
		c-3,0-5.7-0.4-8.3-1.3c-2.6-0.9-4.8-2.2-6.7-3.8c-1.9-1.6-3.4-3.6-4.5-5.9c-1.1-2.3-1.6-4.9-1.6-7.8c0-2.7,0.6-5.1,1.7-7.4
		c1.1-2.3,2.6-4.2,4.6-5.9c2-1.7,4.2-3,6.8-3.9c2.5-0.9,5.2-1.4,8-1.4c2.4,0,4.6,0.3,6.8,0.9s4.1,1.4,5.9,2.3
		c1.8,0.9,3.2,1.9,4.2,2.9l-3.3,4.8c-1.9-1.5-4-2.8-6.3-3.8c-2.3-1-4.9-1.5-7.8-1.5c-1.8,0-3.6,0.3-5.4,0.9
		c-1.8,0.6-3.4,1.5-4.8,2.6c-1.4,1.1-2.5,2.5-3.4,4.1c-0.8,1.6-1.2,3.4-1.2,5.4C290.1,30.6,290.5,32.5,291.4,34.2z M366.6,46.7
		l-10.1-13.5H344v13.5h-5.6V10.2h21.3c2.2,0,4.1,0.5,5.9,1.5s3.2,2.3,4.3,4c1.1,1.7,1.6,3.6,1.6,5.7c0,1.7-0.4,3.4-1.1,4.8
		s-1.8,2.8-3,3.9c-1.3,1.1-2.8,1.9-4.4,2.5l10.7,14.2L366.6,46.7z M421.4,15.6h-24.7v9.6h21.8v5.4h-21.8v10.6h24.7v5.4h-30.3V10.2
		h30.3V15.6z M470.5,46.7l-4.2-8.6h-21.6l-4.2,8.6h-6l17.8-36.5h6.6l17.7,36.5H470.5z M520.4,15.6h-14.2v31.1h-5.6V15.6h-13.9v-5.4
		h33.7V15.6z M560.3,15.8h-9.5v25.3h9.5v5.6h-24.7v-5.6h9.5V15.8h-9.5v-5.6h24.7V15.8z M598.6,46.7h-6.8L575,10.2h6.4l9.8,21.8
		c0.6,1.4,1.3,2.9,2.1,4.6s1.5,3.3,2.2,4.8c0.6-1.5,1.3-3.1,2.1-4.8s1.4-3.2,2-4.6l9-21.9h6.6L598.6,46.7z M659.7,15.6H635v9.6h21.8
		v5.4H635v10.6h24.7v5.4h-30.3V10.2h30.3V15.6z"/>
</g>
</svg>
