<?xml version="1.0" encoding="utf-8"?>
<!-- Generator: Adobe Illustrator 24.3.0, SVG Export Plug-In . SVG Version: 6.00 Build 0)  -->
<svg version="1.1" id="レイヤー_1" xmlns="http://www.w3.org/2000/svg" xmlns:xlink="http://www.w3.org/1999/xlink" x="0px"
	 y="0px" viewBox="0 0 385 267" style="enable-background:new 0 0 385 267;" xml:space="preserve">
<style type="text/css">
	.st0{fill:#3E3A39;}
</style>
<g>
	<polygon class="st0" points="123.32,140.16 189.88,24.88 256.43,140.16 270.77,140.16 189.88,0.05 108.99,140.16 	"/>
	<polygon class="st0" points="286.53,192.29 322.5,254.58 57.26,254.58 93.22,192.29 78.89,192.29 35.76,267 344,267 300.87,192.29 
			"/>
</g>
<g>
	<path class="st0" d="M21.52,176.66H9.45l-2.29,6.88h-7.32l12.43-33.4h6.38l12.5,33.4h-7.32L21.52,176.66z M11.31,171.08h8.35
		l-4.2-12.5L11.31,171.08z"/>
	<path class="st0" d="M46.61,175.26l7.57-25.12h7.66l-11.63,33.4h-7.18l-11.58-33.4h7.64L46.61,175.26z"/>
	<path class="st0" d="M83.84,176.66H71.77l-2.29,6.88h-7.32l12.43-33.4h6.38l12.5,33.4h-7.32L83.84,176.66z M73.63,171.08h8.35
		l-4.2-12.5L73.63,171.08z"/>
	<path class="st0" d="M123.75,183.54h-6.88l-13.4-21.97v21.97h-6.88v-33.4h6.88l13.42,22.02v-22.02h6.86V183.54z"/>
	<path class="st0" d="M154.9,155.72h-10.23v27.82h-6.88v-27.82h-10.09v-5.57h27.2V155.72z"/>
	<path class="st0" d="M196.74,172.42c-0.26,3.59-1.59,6.42-3.98,8.49c-2.39,2.06-5.55,3.1-9.46,3.1c-4.28,0-7.65-1.44-10.1-4.32
		c-2.45-2.88-3.68-6.84-3.68-11.87v-2.04c0-3.21,0.57-6.04,1.7-8.49s2.75-4.32,4.85-5.63c2.1-1.31,4.55-1.96,7.33-1.96
		c3.85,0,6.96,1.03,9.31,3.1c2.35,2.06,3.71,4.96,4.08,8.69h-6.88c-0.17-2.16-0.77-3.72-1.8-4.69s-2.6-1.46-4.71-1.46
		c-2.29,0-4.01,0.82-5.15,2.47c-1.14,1.64-1.72,4.19-1.75,7.65v2.52c0,3.61,0.55,6.25,1.64,7.91c1.09,1.67,2.82,2.5,5.17,2.5
		c2.13,0,3.71-0.49,4.76-1.46c1.05-0.97,1.65-2.47,1.8-4.51H196.74z"/>
	<path class="st0" d="M213.62,171.31h-5.48v12.23h-6.88v-33.4h12.41c3.95,0,6.99,0.88,9.13,2.64c2.14,1.76,3.21,4.24,3.21,7.46
		c0,2.28-0.49,4.18-1.48,5.7s-2.48,2.73-4.48,3.64l7.23,13.65v0.32h-7.39L213.62,171.31z M208.14,165.74h5.55
		c1.73,0,3.07-0.44,4.01-1.32c0.95-0.88,1.42-2.09,1.42-3.64c0-1.57-0.45-2.81-1.34-3.72s-2.27-1.35-4.12-1.35h-5.53V165.74z"/>
	<path class="st0" d="M251.33,169.07h-13.21v8.95h15.51v5.53h-22.39v-33.4h22.34v5.57h-15.46v7.96h13.21V169.07z"/>
	<path class="st0" d="M276.52,176.66h-12.07l-2.29,6.88h-7.32l12.43-33.4h6.38l12.5,33.4h-7.32L276.52,176.66z M266.31,171.08h8.35
		l-4.2-12.5L266.31,171.08z"/>
	<path class="st0" d="M314.41,155.72h-10.23v27.82h-6.88v-27.82h-10.09v-5.57h27.2V155.72z"/>
	<path class="st0" d="M325.65,183.54h-6.88v-33.4h6.88V183.54z"/>
	<path class="st0" d="M344.37,175.26l7.57-25.12h7.66l-11.63,33.4h-7.18l-11.58-33.4h7.64L344.37,175.26z"/>
	<path class="st0" d="M382.83,169.07h-13.21v8.95h15.51v5.53h-22.39v-33.4h22.34v5.57h-15.46v7.96h13.21V169.07z"/>
</g>
</svg>
