<?xml version="1.0" encoding="utf-8"?>
<!-- Generator: Adobe Illustrator 24.3.0, SVG Export Plug-In . SVG Version: 6.00 Build 0)  -->
<svg version="1.1" id="レイヤー_1" xmlns="http://www.w3.org/2000/svg" xmlns:xlink="http://www.w3.org/1999/xlink" x="0px"
	 y="0px" viewBox="0 0 322.6 88.8" style="enable-background:new 0 0 322.6 88.8;" xml:space="preserve">
<style type="text/css">
	.st0{fill:#E47F5A;}
	.st1{fill:#FFFFFF;}
</style>
<g>
	<path class="st0" d="M8.44,80.26L33.2,9.06c0.2-0.58,0.75-0.96,1.36-0.96h9.77c0.61,0,1.16,0.39,1.36,0.96l24.76,71.2
		c0.32,0.93-0.37,1.91-1.36,1.91H58.94c-0.62,0-1.17-0.4-1.36-0.99l-4.4-13.38c-0.19-0.59-0.74-0.99-1.36-0.99H27.17
		c-0.62,0-1.17,0.4-1.36,0.99l-4.4,13.38c-0.19,0.59-0.74,0.99-1.36,0.99H9.79C8.8,82.17,8.11,81.19,8.44,80.26z M31.55,56.08h15.78
		c0.98,0,1.67-0.96,1.36-1.89L40.8,30.27c-0.43-1.32-2.29-1.32-2.73,0l-7.89,23.93C29.88,55.12,30.57,56.08,31.55,56.08z"/>
	<path class="st1" d="M76.37,9.08l16.57,49.21c0.44,1.3,2.28,1.3,2.72,0l16.76-49.22c0.2-0.58,0.74-0.97,1.36-0.97h10.57
		c0.99,0,1.69,0.98,1.35,1.92l-25.28,71.2c-0.2,0.57-0.75,0.96-1.35,0.96h-9.35c-0.61,0-1.15-0.38-1.35-0.96l-25.28-71.2
		c-0.33-0.93,0.36-1.92,1.35-1.92h10.57C75.63,8.1,76.18,8.49,76.37,9.08z"/>
	<path class="st1" d="M118.25,80.26l24.76-71.2c0.2-0.58,0.75-0.96,1.36-0.96h9.77c0.61,0,1.16,0.39,1.36,0.96l24.76,71.2
		c0.32,0.93-0.37,1.91-1.36,1.91h-10.14c-0.62,0-1.17-0.4-1.36-0.99L163,67.8c-0.19-0.59-0.74-0.99-1.36-0.99h-24.65
		c-0.62,0-1.17,0.4-1.36,0.99l-4.4,13.38c-0.19,0.59-0.74,0.99-1.36,0.99h-10.25C118.62,82.17,117.92,81.19,118.25,80.26z
		 M141.36,56.08h15.78c0.98,0,1.67-0.96,1.36-1.89l-7.89-23.93c-0.43-1.32-2.29-1.32-2.73,0L140,54.19
		C139.69,55.12,140.38,56.08,141.36,56.08z"/>
	<path class="st1" d="M239.42,9.53v71.2c0,0.79-0.64,1.44-1.44,1.44h-8.81c-0.5,0-0.97-0.27-1.23-0.7l-27.08-45.19
		c-0.75-1.25-2.67-0.72-2.67,0.74v43.72c0,0.79-0.64,1.44-1.44,1.44h-9.15c-0.79,0-1.44-0.64-1.44-1.44V9.53
		c0-0.79,0.64-1.44,1.44-1.44h8.48c0.51,0,0.97,0.27,1.23,0.7l27.4,45.83c0.75,1.25,2.67,0.72,2.67-0.74V9.53
		c0-0.79,0.64-1.44,1.44-1.44h9.15C238.78,8.1,239.42,8.74,239.42,9.53z"/>
	<path class="st1" d="M302.33,9.53v7.97c0,0.79-0.64,1.44-1.44,1.44h-18.38c-0.79,0-1.44,0.64-1.44,1.44v60.35
		c0,0.79-0.64,1.44-1.44,1.44h-9.58c-0.79,0-1.44-0.64-1.44-1.44V20.38c0-0.79-0.64-1.44-1.44-1.44h-18.49
		c-0.79,0-1.44-0.64-1.44-1.44V9.53c0-0.79,0.64-1.44,1.44-1.44h52.2C301.68,8.1,302.33,8.74,302.33,9.53z"/>
	<path class="st1" d="M308.04,82.17h-8.33c-0.55,0-1-0.45-1-1v-8.32c0-0.55,0.45-1,1-1h8.33c0.55,0,1,0.45,1,1v8.32
		C309.04,81.72,308.59,82.17,308.04,82.17z"/>
</g>
</svg>
