<?xml version="1.0" encoding="utf-8"?>
<!-- Generator: Adobe Illustrator 24.3.0, SVG Export Plug-In . SVG Version: 6.00 Build 0)  -->
<svg version="1.1" id="レイヤー_1" xmlns="http://www.w3.org/2000/svg" xmlns:xlink="http://www.w3.org/1999/xlink" x="0px"
	 y="0px" viewBox="0 0 100 100" style="enable-background:new 0 0 100 100;" xml:space="preserve">
<style type="text/css">
	.st0{fill:#4285F4;}
	.st1{fill:#34A853;}
	.st2{fill:#FBBC04;}
	.st3{fill:#EA4335;}
</style>
<g>
	<path class="st0" d="M99.02,51.15c0-3.4-0.28-6.82-0.86-10.16H51v19.25H78c-1.12,6.21-4.72,11.7-9.99,15.19v12.49h16.11
		C93.58,79.22,99.02,66.36,99.02,51.15L99.02,51.15z"/>
	<path class="st1" d="M51,100c13.48,0,24.86-4.43,33.14-12.07L68.03,75.44c-4.48,3.05-10.27,4.78-17.01,4.78
		c-13.04,0-24.1-8.8-28.07-20.63H6.32v12.88C14.81,89.34,32.09,100,51,100z"/>
	<path class="st2" d="M22.93,59.58c-2.09-6.21-2.09-12.93,0-19.14V27.56H6.32c-7.09,14.13-7.09,30.77,0,44.9L22.93,59.58z"/>
	<path class="st3" d="M51,19.79c7.13-0.11,14.02,2.57,19.18,7.5l14.27-14.27C75.41,4.52,63.42-0.14,51,0
		C32.09,0,14.81,10.66,6.32,27.56l16.61,12.88C26.88,28.59,37.95,19.79,51,19.79z"/>
</g>
</svg>
